<?xml version="1.0" standalone="no"?>
<!DOCTYPE svg PUBLIC "-//W3C//DTD SVG 20010904//EN"
 "http://www.w3.org/TR/2001/REC-SVG-20010904/DTD/svg10.dtd">
<svg version="1.0" xmlns="http://www.w3.org/2000/svg"
 width="538.000000pt" height="538.000000pt" viewBox="0 0 538.000000 538.000000"
 preserveAspectRatio="xMidYMid meet">
<metadata>
Created by potrace 1.11, written by Peter Selinger 2001-2013
</metadata>
<g transform="translate(0.000000,538.000000) scale(0.100000,-0.100000)"
fill="#000000" stroke="none">
<path d="M2537 5294 c-1 -1 -38 -5 -82 -8 -44 -3 -95 -8 -113 -11 -90 -12
-121 -17 -162 -27 -25 -5 -56 -12 -69 -14 -26 -5 -166 -42 -191 -50 -8 -3 -16
-5 -17 -5 -5 1 -117 -40 -193 -71 -363 -147 -721 -400 -968 -684 -24 -27 -51
-58 -61 -69 -44 -50 -121 -154 -121 -163 0 -6 -4 -12 -8 -14 -10 -4 -102 -143
-102 -154 0 -4 -6 -15 -14 -23 -14 -16 -146 -274 -146 -286 0 -3 -9 -25 -19
-48 -19 -42 -76 -213 -105 -317 -23 -82 -52 -231 -60 -311 -2 -19 -7 -59 -11
-89 -18 -140 -7 -542 19 -670 2 -14 10 -52 16 -85 53 -283 196 -653 325 -845
19 -29 35 -54 35 -57 0 -8 64 -98 73 -101 4 -2 7 -8 7 -13 0 -15 154 -203 234
-286 38 -40 74 -69 79 -66 6 3 7 2 4 -4 -8 -13 88 -99 263 -236 48 -37 110
-77 119 -77 6 0 11 -4 11 -10 0 -5 7 -10 15 -10 8 0 15 -4 15 -10 0 -5 5 -10
10 -10 6 0 27 -11 48 -24 80 -50 341 -176 365 -176 7 0 17 -4 23 -9 5 -5 52
-22 104 -39 215 -70 394 -107 630 -128 68 -6 350 -6 405 0 22 3 67 7 100 11
78 8 305 51 375 71 66 19 169 52 190 61 8 3 20 7 25 8 6 2 28 11 50 20 22 10
45 19 50 20 39 9 355 173 386 201 8 8 18 14 22 14 12 0 198 135 260 188 100
86 207 190 282 273 222 248 419 588 525 909 55 166 103 384 116 525 2 33 7 80
10 105 10 106 4 409 -11 485 -2 11 -4 35 -4 53 -1 22 -5 31 -12 26 -8 -5 -9
-2 -2 11 6 10 7 31 2 49 -8 31 -30 141 -31 151 0 2 -6 28 -14 57 -8 29 -16 60
-18 68 -12 49 -88 264 -112 315 -15 33 -28 62 -29 65 -7 39 -197 369 -217 378
-5 2 -8 8 -8 13 0 10 -75 111 -149 199 -45 54 -213 225 -281 286 -102 92 -296
230 -415 297 -109 61 -291 147 -302 143 -6 -3 -13 0 -15 5 -2 7 -222 91 -235
90 -2 0 -8 2 -15 4 -15 5 -77 20 -168 41 -84 19 -240 44 -310 51 -57 5 -398
11 -403 7z m350 -869 c0 -8 -4 -12 -9 -9 -5 3 -6 10 -3 15 9 13 12 11 12 -6z
m638 -2554 c3 -5 2 -12 -3 -15 -5 -3 -9 1 -9 9 0 17 3 19 12 6z m-638 -656 c0
-8 -4 -12 -9 -9 -5 3 -6 10 -3 15 9 13 12 11 12 -6z"/>
</g>
</svg>
